<?xml version="1.0" encoding="UTF-8"?>
<svg xmlns="http://www.w3.org/2000/svg" viewBox="0 0 500 500">
  <defs>
    <style>
      .cls-1 {
        fill: #f50;
      }

      .cls-2 {
        fill: #f2f5f7;
      }
    </style>
  </defs>
  <g id="Background">
    <rect class="cls-2" width="500" height="500"/>
  </g>
  <g id="Logo">
    <g>
      <path class="cls-1" d="M303.33,150.93l-14.31,55.04h-88.06l-4.29,16.51h16.51l-32.91,126.59h-53.76c-9.01,0-15.58-8.51-13.32-17.22l9.83-37.82h55.04l-40.73-55.04,17.54-67.47c3.15-12.13,14.1-20.6,26.63-20.6h121.82Z"/>
      <path class="cls-1" d="M282.49,231.09l-9.39,36.13c-1.58,6.06-7.05,10.3-13.32,10.3h-35.5c-4.5,0-7.79-4.25-6.66-8.61l9.39-36.13c1.58-6.06,7.05-10.3,13.32-10.3h35.5c4.5,0,7.79,4.25,6.66,8.61Z"/>
      <path class="cls-1" d="M196.67,349.07l14.31-55.04h88.06l4.29-16.51h-16.51l32.91-126.59h53.76c9.01,0,15.58,8.51,13.32,17.22l-9.83,37.82h-55.04l40.73,55.04-17.54,67.47c-3.15,12.13-14.1,20.6-26.63,20.6h-121.82Z"/>
    </g>
  </g>
</svg>