<?xml version="1.0" encoding="UTF-8"?>
<svg xmlns="http://www.w3.org/2000/svg" viewBox="0 0 500 500">
  <defs>
    <style>
      .cls-1 {
        fill: #f50;
      }

      .cls-2 {
        fill: #f2f5f7;
      }
    </style>
  </defs>
  <g id="Background">
    <rect class="cls-2" width="500" height="500"/>
  </g>
  <g id="Logo">
    <g>
      <g>
        <path class="cls-1" d="M290.57,121.83l-10.89,41.87h-67l-3.27,12.56h12.56l-25.04,96.31h-40.9c-6.85,0-11.86-6.47-10.13-13.1l7.48-28.77h41.87l-30.99-41.87,13.34-51.33c2.4-9.23,10.73-15.67,20.26-15.67h92.68Z"/>
        <path class="cls-1" d="M274.72,182.81l-7.15,27.49c-1.2,4.61-5.36,7.83-10.13,7.83h-27.01c-3.43,0-5.93-3.24-5.07-6.55l7.15-27.49c1.2-4.61,5.36-7.83,10.13-7.83h27.01c3.43,0,5.93,3.24,5.07,6.55Z"/>
        <path class="cls-1" d="M209.43,272.57l10.89-41.87h67l3.27-12.56h-12.56l25.04-96.31h40.9c6.85,0,11.86,6.47,10.13,13.1l-7.48,28.77h-41.87l30.99,41.87-13.34,51.33c-2.4,9.23-10.73,15.67-20.26,15.67h-92.68Z"/>
      </g>
      <g>
        <polygon points="100.77 376.94 118.38 376.94 118.38 345.21 152.41 345.21 152.41 330.91 118.38 330.91 118.38 307.98 156.05 307.98 156.05 293.4 100.77 293.4 100.77 376.94"/>
        <path d="M204.75,318.49c-2.49-1.7-5.32-2.96-8.49-3.78-3.18-.82-6.5-1.23-9.98-1.23-5.01,0-9.41.76-13.2,2.27-3.79,1.51-6.89,3.66-9.28,6.45-2.39,2.78-4,6.08-4.82,9.9l16.09,1.29c.6-2.09,1.82-3.82,3.67-5.19,1.85-1.36,4.33-2.05,7.43-2.05s5.24.71,6.87,2.13c1.63,1.42,2.44,3.42,2.44,6v.28c0,1.31-.51,2.31-1.54,3-1.03.69-2.64,1.21-4.85,1.54-2.21.34-5.12.67-8.75,1.01-3.14.3-6.11.82-8.91,1.57-2.8.75-5.31,1.85-7.51,3.31-2.21,1.46-3.94,3.36-5.21,5.69-1.27,2.34-1.91,5.26-1.91,8.77,0,4.11.9,7.55,2.69,10.32,1.79,2.77,4.27,4.85,7.43,6.25,3.16,1.4,6.72,2.1,10.68,2.1,3.1,0,5.83-.42,8.19-1.26,2.35-.84,4.37-2,6.05-3.48,1.68-1.48,3.03-3.2,4.04-5.19h.45v8.75h16.54v-42.27c0-3.7-.73-6.9-2.19-9.59-1.46-2.69-3.43-4.89-5.91-6.59ZM195.58,354.57c0,2.17-.55,4.12-1.65,5.86-1.1,1.74-2.64,3.12-4.6,4.15-1.96,1.03-4.21,1.54-6.76,1.54-2.69,0-4.9-.62-6.62-1.85-1.72-1.23-2.58-3.03-2.58-5.38,0-1.64.42-3.02,1.26-4.12.84-1.1,2.03-1.98,3.56-2.64,1.53-.65,3.33-1.13,5.38-1.43.93-.15,1.98-.31,3.14-.48,1.16-.17,2.32-.36,3.48-.59,1.16-.22,2.21-.49,3.17-.79.95-.3,1.69-.62,2.21-.95v6.67Z"/>
        <polygon points="242.24 362.59 271.01 325.64 271.01 314.26 220.49 314.26 220.49 328.16 250.15 328.16 250.15 328.61 219.48 366.57 219.48 376.94 272.07 376.94 272.07 363.03 242.24 363.03 242.24 362.59"/>
        <path d="M326.38,321.41c-2.69-2.64-5.83-4.62-9.42-5.94-3.59-1.33-7.46-1.99-11.61-1.99-6.13,0-11.47,1.36-16.01,4.09-4.54,2.73-8.05,6.52-10.54,11.38-2.49,4.86-3.73,10.5-3.73,16.93s1.24,12.34,3.73,17.18c2.49,4.84,6.06,8.57,10.74,11.19,4.67,2.62,10.22,3.92,16.65,3.92,5.16,0,9.7-.79,13.62-2.38,3.92-1.59,7.13-3.81,9.61-6.67,2.49-2.86,4.12-6.21,4.91-10.06l-16.03-1.07c-.56,1.53-1.41,2.84-2.55,3.92-1.14,1.08-2.49,1.91-4.06,2.47-1.57.56-3.33.84-5.27.84-2.8,0-5.28-.64-7.43-1.93-2.15-1.29-3.82-3.14-5.02-5.55-1.08-2.17-1.66-4.74-1.77-7.71h42.7v-4.71c0-5.34-.75-10.01-2.24-13.99-1.5-3.98-3.59-7.29-6.28-9.92ZM298.26,328.39c1.96-1.31,4.36-1.96,7.2-1.96s5.22.64,7.15,1.93c1.92,1.29,3.37,3.11,4.35,5.47.67,1.63,1.1,3.47,1.3,5.49h-25.98c.2-2.06.69-3.93,1.47-5.61,1.05-2.24,2.55-4.02,4.51-5.33Z"/>
        <path d="M396.53,324.46c-1.79-3.51-4.31-6.22-7.54-8.13-3.23-1.91-7.02-2.86-11.35-2.86-4.67,0-8.56,1.07-11.66,3.2-3.1,2.13-5.36,5.05-6.78,8.75h-.62v-11.16h-17.04v62.68h17.32v-36.22c0-2.69.5-4.99,1.51-6.9,1.01-1.91,2.41-3.37,4.2-4.4,1.79-1.03,3.85-1.54,6.17-1.54,3.48,0,6.2,1.09,8.19,3.28,1.98,2.19,2.97,5.19,2.97,9v36.78h17.32v-39.86c0-4.9-.9-9.1-2.69-12.61Z"/>
      </g>
    </g>
  </g>
</svg>