<?xml version="1.0" encoding="UTF-8"?>
<svg id="Logo" xmlns="http://www.w3.org/2000/svg" viewBox="0 0 500 250">
  <defs>
    <style>
      .cls-1 {
        fill: #f50;
      }

      .cls-2 {
        fill: #f2f5f7;
      }
    </style>
  </defs>
  <g>
    <path class="cls-1" d="M160.99,80.16l-6.48,24.91h-39.85l-1.94,7.47h7.47l-14.89,57.29h-24.33c-4.08,0-7.05-3.85-6.03-7.79l4.45-17.11h24.91l-18.43-24.91,7.94-30.53c1.43-5.49,6.38-9.32,12.05-9.32h55.13Z"/>
    <path class="cls-1" d="M151.56,116.44l-4.25,16.35c-.71,2.74-3.19,4.66-6.03,4.66h-16.07c-2.04,0-3.53-1.92-3.01-3.9l4.25-16.35c.71-2.74,3.19-4.66,6.03-4.66h16.07c2.04,0,3.53,1.92,3.01,3.9Z"/>
    <path class="cls-1" d="M112.71,169.84l6.48-24.91h39.85l1.94-7.47h-7.47l14.89-57.29h24.33c4.08,0,7.05,3.85,6.03,7.79l-4.45,17.11h-24.91l18.43,24.91-7.94,30.53c-1.43,5.49-6.38,9.32-12.05,9.32h-55.13Z"/>
  </g>
  <g>
    <polygon class="cls-2" points="213.77 154.16 226.24 154.16 226.24 131.67 250.36 131.67 250.36 121.54 226.24 121.54 226.24 105.29 252.94 105.29 252.94 94.96 213.77 94.96 213.77 154.16"/>
    <path class="cls-2" d="M287.45,112.74c-1.76-1.2-3.77-2.1-6.02-2.68-2.25-.58-4.61-.87-7.07-.87-3.55,0-6.67.54-9.36,1.61-2.69,1.07-4.88,2.6-6.58,4.57-1.7,1.97-2.83,4.31-3.42,7.01l11.4.91c.42-1.48,1.29-2.71,2.6-3.68,1.31-.97,3.07-1.45,5.26-1.45s3.72.5,4.87,1.51c1.15,1.01,1.73,2.42,1.73,4.25v.2c0,.93-.36,1.64-1.09,2.13-.73.49-1.87.85-3.44,1.09-1.56.24-3.63.48-6.2.72-2.23.21-4.33.58-6.32,1.11-1.99.53-3.76,1.31-5.32,2.34-1.56,1.03-2.79,2.38-3.69,4.03-.9,1.66-1.35,3.73-1.35,6.22,0,2.91.64,5.35,1.91,7.31,1.27,1.96,3.03,3.44,5.26,4.43,2.24.99,4.76,1.49,7.57,1.49,2.2,0,4.13-.3,5.8-.89,1.67-.6,3.1-1.42,4.29-2.46,1.19-1.05,2.15-2.27,2.86-3.68h.32v6.2h11.72v-29.96c0-2.62-.52-4.89-1.55-6.79-1.03-1.91-2.43-3.46-4.19-4.67ZM280.95,138.31c0,1.54-.39,2.92-1.17,4.15-.78,1.23-1.87,2.21-3.26,2.94-1.39.73-2.99,1.09-4.79,1.09-1.91,0-3.47-.44-4.69-1.31-1.22-.87-1.83-2.15-1.83-3.81,0-1.17.3-2.14.89-2.92.6-.78,1.44-1.4,2.52-1.87,1.09-.46,2.36-.8,3.81-1.01.66-.11,1.4-.22,2.23-.34.82-.12,1.64-.26,2.46-.42.82-.16,1.57-.34,2.24-.56.68-.21,1.2-.44,1.57-.68v4.73Z"/>
    <polygon class="cls-2" points="314.02 143.99 334.4 117.81 334.4 109.74 298.61 109.74 298.61 119.6 319.62 119.6 319.62 119.91 297.89 146.81 297.89 154.16 335.16 154.16 335.16 144.31 314.02 144.31 314.02 143.99"/>
    <path class="cls-2" d="M373.64,114.81c-1.91-1.87-4.13-3.27-6.67-4.21-2.54-.94-5.28-1.41-8.22-1.41-4.34,0-8.12.97-11.34,2.9-3.22,1.93-5.71,4.62-7.47,8.07-1.76,3.44-2.64,7.44-2.64,12s.88,8.75,2.64,12.18c1.76,3.43,4.3,6.07,7.61,7.93,3.31,1.85,7.24,2.78,11.8,2.78,3.66,0,6.87-.56,9.65-1.69,2.78-1.13,5.05-2.7,6.81-4.73,1.76-2.03,2.92-4.4,3.48-7.13l-11.36-.76c-.4,1.09-1,2.01-1.81,2.78-.81.77-1.77,1.35-2.88,1.75-1.11.4-2.36.6-3.73.6-1.99,0-3.74-.46-5.26-1.37-1.52-.91-2.71-2.23-3.56-3.93-.76-1.54-1.18-3.36-1.26-5.46h30.26v-3.34c0-3.79-.53-7.09-1.59-9.91-1.06-2.82-2.54-5.17-4.45-7.03ZM353.72,119.76c1.39-.93,3.09-1.39,5.11-1.39s3.7.46,5.07,1.37c1.36.91,2.39,2.2,3.08,3.87.48,1.15.78,2.46.92,3.89h-18.41c.14-1.46.49-2.78,1.04-3.97.74-1.59,1.81-2.85,3.2-3.77Z"/>
    <path class="cls-2" d="M423.36,116.97c-1.27-2.49-3.05-4.41-5.34-5.76-2.29-1.35-4.97-2.03-8.05-2.03-3.31,0-6.07.76-8.26,2.26-2.2,1.51-3.8,3.58-4.81,6.2h-.44v-7.91h-12.08v44.42h12.28v-25.67c0-1.91.36-3.54,1.07-4.89.72-1.35,1.71-2.39,2.98-3.12,1.27-.73,2.73-1.09,4.37-1.09,2.46,0,4.4.77,5.8,2.32,1.4,1.55,2.11,3.67,2.11,6.38v26.06h12.28v-28.25c0-3.47-.64-6.45-1.91-8.94Z"/>
  </g>
</svg>