<?xml version="1.0" encoding="UTF-8"?>
<svg id="Logo" xmlns="http://www.w3.org/2000/svg" viewBox="0 0 500 150">
  <defs>
    <style>
      .cls-1 {
        fill: #090c11;
      }
    </style>
  </defs>
  <g>
    <path class="cls-1" d="M117.15,44.46l-4.41,16.96h-27.14l-1.32,5.09h5.09l-10.14,39.02h-16.57c-2.78,0-4.8-2.62-4.1-5.31l3.03-11.66h16.96l-12.55-16.96,5.41-20.8c.97-3.74,4.35-6.35,8.21-6.35h37.55Z"/>
    <path class="cls-1" d="M110.73,69.17l-2.9,11.14c-.49,1.87-2.17,3.17-4.1,3.17h-10.94c-1.39,0-2.4-1.31-2.05-2.65l2.9-11.14c.49-1.87,2.17-3.17,4.1-3.17h10.94c1.39,0,2.4,1.31,2.05,2.65Z"/>
    <path class="cls-1" d="M84.27,105.54l4.41-16.96h27.14l1.32-5.09h-5.09l10.14-39.02h16.57c2.78,0,4.8,2.62,4.1,5.31l-3.03,11.66h-16.96l12.55,16.96-5.41,20.8c-.97,3.74-4.35,6.35-8.21,6.35h-37.55Z"/>
  </g>
  <g>
    <polygon points="153.1 94.86 161.6 94.86 161.6 79.55 178.02 79.55 178.02 72.65 161.6 72.65 161.6 61.58 179.78 61.58 179.78 54.54 153.1 54.54 153.1 94.86"/>
    <path d="M203.28,66.65c-1.2-.82-2.57-1.43-4.1-1.83-1.53-.4-3.14-.6-4.82-.6-2.42,0-4.54.37-6.37,1.1-1.83.73-3.32,1.77-4.48,3.11-1.15,1.34-1.93,2.94-2.33,4.78l7.77.62c.29-1.01.88-1.84,1.77-2.5.89-.66,2.09-.99,3.59-.99s2.53.34,3.31,1.03c.78.69,1.18,1.65,1.18,2.9v.14c0,.63-.25,1.11-.74,1.45-.5.33-1.28.58-2.34.74-1.06.16-2.47.32-4.22.49-1.52.14-2.95.4-4.3.76-1.35.36-2.56.89-3.63,1.6-1.06.7-1.9,1.62-2.52,2.75-.61,1.13-.92,2.54-.92,4.23,0,1.98.43,3.64,1.3,4.98.87,1.34,2.06,2.34,3.59,3.02,1.52.68,3.24,1.01,5.15,1.01,1.5,0,2.81-.2,3.95-.61,1.14-.41,2.11-.96,2.92-1.68.81-.71,1.46-1.55,1.95-2.5h.22v4.22h7.98v-20.4c0-1.79-.35-3.33-1.06-4.63-.7-1.3-1.66-2.36-2.85-3.18ZM198.86,84.06c0,1.05-.27,1.99-.8,2.83-.53.84-1.27,1.51-2.22,2-.95.5-2.03.74-3.26.74-1.3,0-2.36-.3-3.19-.89-.83-.6-1.24-1.46-1.24-2.6,0-.79.2-1.46.61-1.99.41-.53.98-.96,1.72-1.27.74-.32,1.61-.55,2.6-.69.45-.07.96-.15,1.52-.23.56-.08,1.12-.18,1.68-.28.56-.11,1.07-.23,1.53-.38.46-.14.82-.3,1.07-.46v3.22Z"/>
    <polygon points="221.38 87.93 235.26 70.1 235.26 64.61 210.88 64.61 210.88 71.32 225.19 71.32 225.19 71.54 210.39 89.86 210.39 94.86 235.77 94.86 235.77 88.15 221.38 88.15 221.38 87.93"/>
    <path d="M261.99,68.06c-1.3-1.27-2.81-2.23-4.55-2.87-1.73-.64-3.6-.96-5.6-.96-2.96,0-5.53.66-7.73,1.98-2.19,1.32-3.89,3.15-5.09,5.49-1.2,2.35-1.8,5.07-1.8,8.17s.6,5.96,1.8,8.29c1.2,2.34,2.93,4.14,5.18,5.4,2.25,1.26,4.93,1.89,8.04,1.89,2.49,0,4.68-.38,6.58-1.15,1.89-.77,3.44-1.84,4.64-3.22,1.2-1.38,1.99-3,2.37-4.86l-7.74-.51c-.27.74-.68,1.37-1.23,1.89-.55.52-1.2.92-1.96,1.19-.76.27-1.61.41-2.54.41-1.35,0-2.55-.31-3.59-.93-1.04-.62-1.84-1.52-2.42-2.68-.52-1.05-.8-2.29-.85-3.72h20.61v-2.27c0-2.58-.36-4.83-1.08-6.75-.72-1.92-1.73-3.52-3.03-4.79ZM248.42,71.43c.95-.63,2.11-.95,3.48-.95s2.52.31,3.45.93c.93.62,1.63,1.5,2.1,2.64.32.79.53,1.68.63,2.65h-12.54c.09-.99.33-1.9.71-2.71.5-1.08,1.23-1.94,2.18-2.57Z"/>
    <path d="M295.85,69.53c-.87-1.7-2.08-3-3.64-3.92-1.56-.92-3.39-1.38-5.48-1.38-2.26,0-4.13.51-5.63,1.54-1.5,1.03-2.59,2.44-3.27,4.22h-.3v-5.38h-8.23v30.25h8.36v-17.48c0-1.3.24-2.41.73-3.33.49-.92,1.16-1.63,2.03-2.12.87-.5,1.86-.74,2.98-.74,1.68,0,2.99.53,3.95,1.58.96,1.06,1.43,2.5,1.43,4.34v17.75h8.36v-19.24c0-2.36-.43-4.39-1.3-6.09Z"/>
  </g>
  <g>
    <path d="M323.28,95.37c-2.88,0-5.37-.46-7.48-1.39-2.11-.93-3.76-2.22-4.96-3.89-1.2-1.67-1.88-3.6-2.04-5.79h5.02c.14,1.51.66,2.76,1.55,3.75.89.99,2.03,1.73,3.42,2.21,1.39.49,2.88.73,4.48.73,1.85,0,3.52-.31,5.01-.92,1.49-.61,2.66-1.47,3.52-2.57.86-1.1,1.3-2.39,1.3-3.86,0-1.33-.38-2.41-1.13-3.24s-1.74-1.5-2.96-2.03c-1.22-.52-2.53-.98-3.96-1.38l-4.92-1.4c-3.15-.9-5.64-2.19-7.47-3.88-1.83-1.68-2.74-3.88-2.74-6.6,0-2.25.61-4.22,1.82-5.9s2.86-2.99,4.94-3.93,4.4-1.4,6.95-1.4,4.9.46,6.91,1.39c2.02.93,3.62,2.19,4.81,3.78,1.19,1.59,1.82,3.4,1.89,5.42h-4.75c-.23-1.98-1.18-3.52-2.85-4.62-1.67-1.1-3.72-1.65-6.17-1.65-1.76,0-3.31.29-4.65.86-1.33.58-2.37,1.37-3.11,2.38-.74,1.01-1.11,2.16-1.11,3.46,0,1.42.44,2.57,1.32,3.44.88.87,1.93,1.55,3.15,2.04,1.22.49,2.32.87,3.31,1.16l4.05,1.13c1.04.29,2.21.67,3.5,1.16,1.29.49,2.53,1.14,3.73,1.97,1.2.83,2.18,1.89,2.96,3.17.77,1.29,1.16,2.88,1.16,4.77,0,2.16-.57,4.12-1.7,5.87-1.13,1.76-2.78,3.15-4.94,4.19s-4.79,1.55-7.89,1.55Z"/>
    <path d="M354.18,95.32c-2.72,0-5.1-.65-7.16-1.94-2.05-1.3-3.65-3.12-4.79-5.46-1.14-2.34-1.72-5.06-1.72-8.16s.57-5.9,1.72-8.25c1.14-2.35,2.74-4.17,4.79-5.47,2.05-1.3,4.44-1.95,7.16-1.95s5.13.65,7.18,1.95c2.05,1.3,3.65,3.12,4.81,5.47,1.15,2.35,1.73,5.1,1.73,8.25s-.58,5.82-1.73,8.16c-1.15,2.34-2.75,4.16-4.81,5.46-2.05,1.3-4.45,1.94-7.18,1.94ZM354.18,91.16c2.09,0,3.8-.53,5.13-1.59,1.33-1.06,2.32-2.46,2.97-4.2.65-1.74.97-3.61.97-5.6s-.32-3.92-.97-5.67c-.65-1.75-1.64-3.16-2.97-4.23-1.33-1.07-3.04-1.61-5.13-1.61s-3.75.54-5.08,1.61c-1.33,1.07-2.32,2.48-2.97,4.23-.65,1.75-.97,3.64-.97,5.67s.32,3.87.97,5.6c.65,1.74,1.64,3.14,2.97,4.2,1.33,1.06,3.02,1.59,5.08,1.59Z"/>
    <path d="M383.96,95.32c-2.81,0-5.24-.67-7.28-2.01-2.04-1.34-3.62-3.18-4.73-5.52s-1.66-5.01-1.66-8.02.57-5.79,1.7-8.14,2.72-4.19,4.77-5.52c2.04-1.33,4.42-2,7.14-2,2.12,0,4.04.39,5.74,1.18,1.7.78,3.1,1.89,4.19,3.31,1.09,1.42,1.76,3.08,2.01,4.97h-4.65c-.23-.92-.66-1.78-1.27-2.59-.61-.81-1.42-1.46-2.42-1.96-1-.5-2.18-.74-3.55-.74-1.8,0-3.38.47-4.73,1.4-1.35.94-2.4,2.25-3.16,3.96-.76,1.7-1.13,3.7-1.13,5.98s.37,4.35,1.11,6.09c.74,1.74,1.79,3.08,3.15,4.04,1.36.95,2.95,1.43,4.77,1.43s3.38-.47,4.67-1.42,2.15-2.24,2.57-3.88h4.65c-.25,1.78-.9,3.39-1.93,4.81-1.04,1.42-2.4,2.55-4.08,3.39-1.68.84-3.64,1.26-5.87,1.26Z"/>
    <path d="M401.7,59.45c-.9,0-1.67-.31-2.32-.92-.65-.61-.97-1.35-.97-2.21s.32-1.6.97-2.21c.65-.61,1.42-.92,2.32-.92s1.67.31,2.32.92c.65.61.97,1.35.97,2.21s-.32,1.6-.97,2.21c-.65.61-1.42.92-2.32.92ZM399.38,94.67v-30.19h4.59v30.19h-4.59Z"/>
    <path d="M417.91,95.37c-1.91,0-3.65-.36-5.21-1.09s-2.81-1.79-3.73-3.17c-.92-1.39-1.38-3.06-1.38-5.02,0-1.73.34-3.13,1.03-4.2s1.6-1.92,2.74-2.54,2.4-1.08,3.78-1.39c1.38-.31,2.77-.55,4.17-.73,1.84-.23,3.33-.41,4.47-.54,1.14-.13,1.98-.34,2.51-.65.53-.31.8-.83.8-1.57v-.16c0-1.93-.53-3.42-1.58-4.5s-2.65-1.61-4.79-1.61-3.93.48-5.19,1.45-2.14,1.99-2.65,3.09l-4.43-1.57c.79-1.84,1.85-3.27,3.17-4.29,1.32-1.03,2.76-1.75,4.32-2.16,1.56-.41,3.09-.62,4.6-.62.97,0,2.09.11,3.35.34,1.26.23,2.49.69,3.69,1.4,1.2.71,2.19,1.78,2.97,3.21.78,1.43,1.17,3.34,1.17,5.74v19.88h-4.65v-4.11h-.22c-.31.65-.83,1.35-1.57,2.09s-1.71,1.39-2.93,1.92c-1.22.53-2.71.8-4.47.8ZM418.61,91.21c1.84,0,3.38-.36,4.65-1.08s2.21-1.65,2.86-2.8c.65-1.14.97-2.34.97-3.58v-4.27c-.2.23-.63.45-1.28.63-.66.19-1.41.36-2.27.5-.86.14-1.69.27-2.5.36-.81.1-1.46.18-1.94.23-1.21.16-2.33.42-3.38.77-1.04.35-1.89.87-2.52,1.55-.64.68-.96,1.62-.96,2.81,0,1.6.6,2.81,1.8,3.63s2.72,1.23,4.58,1.23Z"/>
    <path d="M441.59,54.43v40.24h-4.59v-40.24h4.59Z"/>
  </g>
</svg>